<svg width="20" height="20" viewBox="0 0 20 20" fill="none" xmlns="http://www.w3.org/2000/svg">
<path d="M5.83333 12.4993L9.16667 9.16602L10.8333 10.8327L14.1667 7.49935M9.66667 18.3327H10.3333C13.1336 18.3327 14.5337 18.3327 15.6033 17.7877C16.5441 17.3083 17.309 16.5434 17.7884 15.6026C18.3333 14.5331 18.3333 13.1329 18.3333 10.3327V9.66602C18.3333 6.86575 18.3333 5.46562 17.7884 4.39606C17.309 3.45525 16.5441 2.69035 15.6033 2.21098C14.5337 1.66602 13.1336 1.66602 10.3333 1.66602H9.66667C6.86641 1.66602 5.46627 1.66602 4.39672 2.21098C3.4559 2.69035 2.691 3.45525 2.21164 4.39606C1.66667 5.46562 1.66667 6.86575 1.66667 9.66602V10.3327C1.66667 13.1329 1.66667 14.5331 2.21164 15.6026C2.691 16.5434 3.4559 17.3083 4.39672 17.7877C5.46627 18.3327 6.86641 18.3327 9.66667 18.3327Z" stroke="#0F8ECD" stroke-width="1.5" stroke-linecap="round" stroke-linejoin="round"/>
</svg>
