<svg width="20" height="20" viewBox="0 0 20 20" fill="none" xmlns="http://www.w3.org/2000/svg">
<path d="M1.66675 4.86675C1.66675 3.74664 1.66675 3.18659 1.88474 2.75877C2.07648 2.38244 2.38244 2.07648 2.75877 1.88474C3.18659 1.66675 3.74664 1.66675 4.86675 1.66675H5.13342C6.25352 1.66675 6.81357 1.66675 7.2414 1.88474C7.61772 2.07648 7.92368 2.38244 8.11543 2.75877C8.33342 3.18659 8.33342 3.74664 8.33342 4.86675V5.13342C8.33342 6.25352 8.33342 6.81357 8.11543 7.2414C7.92368 7.61772 7.61772 7.92368 7.2414 8.11543C6.81357 8.33342 6.25352 8.33342 5.13341 8.33342H4.86675C3.74664 8.33342 3.18659 8.33342 2.75877 8.11543C2.38244 7.92368 2.07648 7.61772 1.88474 7.2414C1.66675 6.81357 1.66675 6.25352 1.66675 5.13341V4.86675Z" stroke="#0F8ECD" stroke-width="1.5" stroke-linecap="round" stroke-linejoin="round"/>
<path d="M11.6667 4.86675C11.6667 3.74664 11.6667 3.18659 11.8847 2.75877C12.0765 2.38244 12.3824 2.07648 12.7588 1.88474C13.1866 1.66675 13.7466 1.66675 14.8667 1.66675H15.1334C16.2535 1.66675 16.8136 1.66675 17.2414 1.88474C17.6177 2.07648 17.9237 2.38244 18.1154 2.75877C18.3334 3.18659 18.3334 3.74664 18.3334 4.86675V5.13342C18.3334 6.25352 18.3334 6.81357 18.1154 7.2414C17.9237 7.61772 17.6177 7.92368 17.2414 8.11543C16.8136 8.33342 16.2535 8.33342 15.1334 8.33342H14.8667C13.7466 8.33342 13.1866 8.33342 12.7588 8.11543C12.3824 7.92368 12.0765 7.61772 11.8847 7.2414C11.6667 6.81357 11.6667 6.25352 11.6667 5.13341V4.86675Z" stroke="#0F8ECD" stroke-width="1.5" stroke-linecap="round" stroke-linejoin="round"/>
<path d="M1.66675 14.8667C1.66675 13.7466 1.66675 13.1866 1.88474 12.7588C2.07648 12.3824 2.38244 12.0765 2.75877 11.8847C3.18659 11.6667 3.74664 11.6667 4.86675 11.6667H5.13342C6.25352 11.6667 6.81357 11.6667 7.2414 11.8847C7.61772 12.0765 7.92368 12.3824 8.11543 12.7588C8.33342 13.1866 8.33342 13.7466 8.33342 14.8667V15.1334C8.33342 16.2535 8.33342 16.8136 8.11543 17.2414C7.92368 17.6177 7.61772 17.9237 7.2414 18.1154C6.81357 18.3334 6.25352 18.3334 5.13341 18.3334H4.86675C3.74664 18.3334 3.18659 18.3334 2.75877 18.1154C2.38244 17.9237 2.07648 17.6177 1.88474 17.2414C1.66675 16.8136 1.66675 16.2535 1.66675 15.1334V14.8667Z" stroke="#0F8ECD" stroke-width="1.5" stroke-linecap="round" stroke-linejoin="round"/>
<path d="M11.6667 14.8667C11.6667 13.7466 11.6667 13.1866 11.8847 12.7588C12.0765 12.3824 12.3824 12.0765 12.7588 11.8847C13.1866 11.6667 13.7466 11.6667 14.8667 11.6667H15.1334C16.2535 11.6667 16.8136 11.6667 17.2414 11.8847C17.6177 12.0765 17.9237 12.3824 18.1154 12.7588C18.3334 13.1866 18.3334 13.7466 18.3334 14.8667V15.1334C18.3334 16.2535 18.3334 16.8136 18.1154 17.2414C17.9237 17.6177 17.6177 17.9237 17.2414 18.1154C16.8136 18.3334 16.2535 18.3334 15.1334 18.3334H14.8667C13.7466 18.3334 13.1866 18.3334 12.7588 18.1154C12.3824 17.9237 12.0765 17.6177 11.8847 17.2414C11.6667 16.8136 11.6667 16.2535 11.6667 15.1334V14.8667Z" stroke="#0F8ECD" stroke-width="1.5" stroke-linecap="round" stroke-linejoin="round"/>
</svg>
