<svg width="20" height="20" viewBox="0 0 20 20" fill="none" xmlns="http://www.w3.org/2000/svg">
<path d="M10.0001 14.9993C11.8486 13.811 13.2871 13.4135 15.1343 13.2805C16.3336 13.1941 16.9333 13.151 17.3299 12.9231C17.6961 12.7126 17.951 12.4387 18.1346 12.0583C18.3334 11.6464 18.3334 11.1021 18.3334 10.0136V1.66602C14.6297 1.66602 12.7779 1.66601 10.0001 3.45173M10.0001 14.9993C8.15152 13.811 6.71302 13.4135 4.86591 13.2805C3.66657 13.1941 3.0669 13.151 2.6703 12.9231C2.3041 12.7126 2.04916 12.4387 1.86557 12.0583C1.66675 11.6464 1.66675 11.1021 1.66675 10.0136V1.66602C5.37045 1.66602 7.2223 1.66601 10.0001 3.45173M10.0001 14.9993V3.45173M17.5001 16.2493C14.1667 16.2493 12.5001 16.666 10.0001 18.3327C7.50008 16.666 5.83341 16.2493 2.50008 16.2493" stroke="#0F8ECD" stroke-width="1.5" stroke-linecap="round" stroke-linejoin="round"/>
</svg>
