<svg width="20" height="20" viewBox="0 0 20 20" fill="none" xmlns="http://www.w3.org/2000/svg">
<g clip-path="url(#clip0_9739_27119)">
<path d="M9.16699 16.667L18.3337 16.667M9.16699 10.0003L18.3337 10.0003M9.16699 3.33366L18.3337 3.33366M3.26699 18.3337L3.40033 18.3337C3.96038 18.3337 4.24041 18.3337 4.45432 18.2247C4.64248 18.1288 4.79546 17.9758 4.89133 17.7876C5.00033 17.5737 5.00033 17.2937 5.00033 16.7337L5.00033 16.6003C5.00033 16.0403 5.00033 15.7602 4.89133 15.5463C4.79546 15.3582 4.64248 15.2052 4.45432 15.1093C4.24041 15.0003 3.96038 15.0003 3.40033 15.0003L3.26699 15.0003C2.70694 15.0003 2.42692 15.0003 2.213 15.1093C2.02484 15.2052 1.87186 15.3582 1.77599 15.5463C1.66699 15.7602 1.66699 16.0403 1.66699 16.6003L1.66699 16.7337C1.66699 17.2937 1.667 17.5737 1.77599 17.7876C1.87186 17.9758 2.02484 18.1288 2.213 18.2247C2.42692 18.3337 2.70694 18.3337 3.26699 18.3337ZM3.26699 11.667L3.40033 11.667C3.96038 11.667 4.24041 11.667 4.45432 11.558C4.64248 11.4621 4.79546 11.3091 4.89133 11.121C5.00033 10.9071 5.00033 10.627 5.00033 10.067L5.00033 9.93366C5.00033 9.37361 5.00033 9.09358 4.89133 8.87967C4.79546 8.69151 4.64248 8.53853 4.45432 8.44265C4.24041 8.33366 3.96038 8.33366 3.40033 8.33366L3.26699 8.33366C2.70694 8.33366 2.42691 8.33366 2.213 8.44265C2.02484 8.53853 1.87186 8.69151 1.77599 8.87967C1.66699 9.09358 1.66699 9.37361 1.66699 9.93366L1.66699 10.067C1.66699 10.627 1.66699 10.9071 1.77599 11.121C1.87186 11.3091 2.02484 11.4621 2.213 11.558C2.42692 11.667 2.70694 11.667 3.26699 11.667ZM3.26699 5.00033L3.40033 5.00033C3.96038 5.00033 4.2404 5.00032 4.45432 4.89133C4.64248 4.79546 4.79546 4.64248 4.89133 4.45432C5.00033 4.2404 5.00033 3.96038 5.00033 3.40033L5.00033 3.26699C5.00033 2.70694 5.00033 2.42691 4.89133 2.213C4.79546 2.02484 4.64248 1.87186 4.45432 1.77599C4.2404 1.66699 3.96038 1.66699 3.40033 1.66699L3.26699 1.66699C2.70694 1.66699 2.42691 1.66699 2.213 1.77599C2.02484 1.87186 1.87186 2.02484 1.77599 2.213C1.66699 2.42691 1.66699 2.70694 1.66699 3.26699L1.66699 3.40033C1.66699 3.96038 1.66699 4.2404 1.77599 4.45432C1.87186 4.64248 2.02484 4.79546 2.213 4.89133C2.42691 5.00033 2.70694 5.00033 3.26699 5.00033Z" stroke="#0F8ECD" stroke-width="1.5" stroke-linecap="round" stroke-linejoin="round"/>
</g>
<defs>
<clipPath id="clip0_9739_27119">
<rect width="20" height="20" fill="white"/>
</clipPath>
</defs>
</svg>
