<svg width="20" height="20" viewBox="0 0 20 20" fill="none" xmlns="http://www.w3.org/2000/svg">
<path d="M10 3.3332C9.41919 3.3332 8.84434 3.1151 8.48864 2.65595L8.29006 2.39962C7.67754 1.60898 6.57515 1.39235 5.709 1.89242L5.12434 2.22997C4.2582 2.73004 3.89461 3.79306 4.27306 4.71883L4.39568 5.01876C4.61558 5.55669 4.51806 6.16085 4.22683 6.66374C3.93585 7.16619 3.45866 7.55854 2.88336 7.63699L2.56311 7.68066C1.57214 7.81579 0.833332 8.66218 0.833332 9.66232V10.3374C0.833332 11.3376 1.57213 12.1839 2.5631 12.3191L2.88338 12.3628C3.45867 12.4412 3.93585 12.8335 4.22682 13.336C4.51805 13.8389 4.61556 14.443 4.39566 14.9809L4.27305 15.2808C3.89459 16.2066 4.25818 17.2696 5.12433 17.7697L5.70898 18.1073C6.57513 18.6073 7.67753 18.3907 8.29004 17.6001L8.48855 17.3438C8.84427 16.8846 9.41915 16.6665 10 16.6665C10.5809 16.6665 11.1559 16.8847 11.5116 17.3439L11.71 17.5999C12.3225 18.3905 13.4249 18.6072 14.291 18.1071L14.8757 17.7696C15.7418 17.2695 16.1054 16.2065 15.7269 15.2807L15.6044 14.9808C15.3845 14.4429 15.482 13.8388 15.7732 13.336C16.0641 12.8335 16.5413 12.4412 17.1166 12.3628L17.4369 12.3191C18.4279 12.184 19.1667 11.3376 19.1667 10.3374V9.66232C19.1667 8.66218 18.4279 7.81579 17.4369 7.68066L17.1166 7.63698C16.5413 7.55854 16.0641 7.1662 15.7732 6.66376C15.482 6.16089 15.3844 5.55675 15.6043 5.01885L15.7269 4.71898C16.1054 3.79321 15.7418 2.73019 14.8756 2.23012L14.291 1.89257C13.4248 1.3925 12.3225 1.60913 11.7099 2.39977L11.5115 2.65588C11.1558 3.11508 10.5809 3.3332 10 3.3332Z" stroke="#0F8ECD" stroke-width="1.5" stroke-linecap="round" stroke-linejoin="round"/>
<path d="M12.5 9.99984C12.5 11.3805 11.3807 12.4998 10 12.4998C8.61929 12.4998 7.5 11.3805 7.5 9.99984C7.5 8.61913 8.61929 7.49984 10 7.49984C11.3807 7.49984 12.5 8.61913 12.5 9.99984Z" stroke="#0F8ECD" stroke-width="1.5" stroke-linecap="round" stroke-linejoin="round"/>
</svg>
