<svg width="20" height="20" viewBox="0 0 20 20" fill="none" xmlns="http://www.w3.org/2000/svg">
<path d="M11.6667 6.66602C11.6667 7.58649 10.9205 8.33268 10 8.33268C9.07953 8.33268 8.33333 7.58649 8.33333 6.66602C8.33333 5.74554 9.07953 4.99935 10 4.99935C10.9205 4.99935 11.6667 5.74554 11.6667 6.66602Z" stroke="#0F8ECD" stroke-width="1.5" stroke-linecap="round" stroke-linejoin="round"/>
<path d="M1.66667 9.99935C1.66667 7.82813 1.66667 6.74253 1.94437 5.86178C2.53302 3.9948 3.99545 2.53237 5.86243 1.94371C6.74318 1.66602 7.82879 1.66602 10 1.66602C12.1712 1.66602 13.2568 1.66602 14.1376 1.94371C16.0046 2.53237 17.467 3.9948 18.0556 5.86178C18.3333 6.74253 18.3333 7.82813 18.3333 9.99935C18.3333 12.1706 18.3333 13.2562 18.0556 14.1369C17.467 16.0039 16.0046 17.4663 14.1376 18.055C13.2568 18.3327 12.1712 18.3327 10 18.3327C7.82879 18.3327 6.74318 18.3327 5.86243 18.055C3.99545 17.4663 2.53302 16.0039 1.94437 14.1369C1.66667 13.2562 1.66667 12.1706 1.66667 9.99935Z" stroke="#0F8ECD" stroke-width="1.5" stroke-linecap="round" stroke-linejoin="round"/>
</svg>
