<svg width="20" height="20" viewBox="0 0 20 20" fill="none" xmlns="http://www.w3.org/2000/svg">
<path d="M12.4999 8.33317C14.3409 8.33317 15.8333 6.84079 15.8333 4.99984C15.8333 3.15889 14.3409 1.6665 12.4999 1.6665M14.1666 18.3332H16.4999C17.9727 18.3332 19.1666 17.1393 19.1666 15.6665C19.1666 13.4574 17.3757 11.6665 15.1666 11.6665H14.1666M9.99992 4.99984C9.99992 6.84079 8.50753 8.33317 6.66658 8.33317C4.82564 8.33317 3.33325 6.84079 3.33325 4.99984C3.33325 3.15889 4.82564 1.6665 6.66658 1.6665C8.50753 1.6665 9.99992 3.15889 9.99992 4.99984ZM3.49992 18.3332H9.83325C11.306 18.3332 12.4999 17.1393 12.4999 15.6665C12.4999 13.4574 10.7091 11.6665 8.49991 11.6665H4.83325C2.62411 11.6665 0.833252 13.4574 0.833252 15.6665C0.833252 17.1393 2.02716 18.3332 3.49992 18.3332Z" stroke="#0F8ECD" stroke-width="1.5" stroke-linecap="round" stroke-linejoin="round"/>
</svg>
